<?xml version="1.0" encoding="UTF-8" standalone="no"?>
<!-- Created with Inkscape (http://www.inkscape.org/) -->

<svg
   width="450"
   height="300"
   viewBox="0 0 119.06251 79.374998"
   version="1.1"
   id="svg5"
   inkscape:version="1.1.2 (0a00cf5339, 2022-02-04)"
   sodipodi:docname="TUT.svg"
   xmlns:inkscape="http://www.inkscape.org/namespaces/inkscape"
   xmlns:sodipodi="http://sodipodi.sourceforge.net/DTD/sodipodi-0.dtd"
   xmlns="http://www.w3.org/2000/svg"
   xmlns:svg="http://www.w3.org/2000/svg">
  <sodipodi:namedview
     id="namedview7"
     pagecolor="#ffffff"
     bordercolor="#666666"
     borderopacity="1.0"
     inkscape:pageshadow="2"
     inkscape:pageopacity="0.0"
     inkscape:pagecheckerboard="0"
     inkscape:document-units="mm"
     showgrid="false"
     inkscape:zoom="1.3612233"
     inkscape:cx="224.79779"
     inkscape:cy="58.403348"
     inkscape:window-width="1850"
     inkscape:window-height="1016"
     inkscape:window-x="0"
     inkscape:window-y="0"
     inkscape:window-maximized="1"
     inkscape:current-layer="layer1"
     units="px" />
  <defs
     id="defs2" />
  <g
     inkscape:label="Layer 1"
     inkscape:groupmode="layer"
     id="layer1">
    <g
       id="g6780"
       transform="translate(58.974751,224.69181)">
      <path
         style="fill:#f00405;stroke-width:0.270213"
         d="m 35.850017,-156.55798 c -0.267999,-0.40902 -0.624042,-1.1139 -0.79121,-1.56641 -0.167164,-0.45251 -1.244402,-3.07227 -2.39386,-5.82168 -1.149459,-2.74942 -2.366916,-5.66771 -2.70546,-6.48511 -1.071429,-2.58688 -1.510884,-3.62499 -1.887398,-4.45851 -0.201401,-0.44585 -0.875979,-2.08739 -1.499071,-3.64787 -0.623089,-1.56048 -1.953832,-4.78277 -2.957208,-7.16064 -1.003378,-2.37787 -2.574704,-6.14734 -3.491838,-8.3766 -0.917135,-2.22925 -1.838133,-4.35718 -2.046667,-4.72872 l -0.379152,-0.67553 -6.975294,-0.13511 -6.9752971,-0.1351 0.027021,-0.33777 c 0.014862,-0.18577 0.045261,-0.45936 0.067553,-0.60798 l 0.040532,-0.27021 H 5.04698 6.2112917 l 0.4622097,-0.33798 0.4622098,-0.33797 -0.072798,-6.18544 -0.072798,-6.18544 -0.4318162,-0.27218 -0.4318135,-0.27217 -0.8119975,0.40507 -0.8120002,0.40508 -0.2971935,-0.47588 -0.2971908,-0.47588 0.4234639,-0.1625 c 0.2329045,-0.0894 9.0984236,-0.15787 19.7011536,-0.1522 l 19.27769,0.0103 0.141189,0.22845 0.141189,0.22844 -1.097588,0.14722 c -0.603674,0.081 -1.178744,0.22803 -1.277934,0.3268 -0.09919,0.0988 -0.24114,2.20651 -0.315449,4.68389 l -0.135106,4.50431 -2.956298,0.0772 -2.956298,0.0772 -0.353809,0.29364 -0.353808,0.29363 v 1.06553 c 0,0.58604 0.125873,1.30073 0.279719,1.58819 l 0.279721,0.52266 h 4.712987 4.712986 l 0.416719,-0.63599 0.41672,-0.636 -0.02486,-4.38827 c -0.01367,-2.41356 0.02694,-4.44009 0.09026,-4.50341 0.170305,-0.1703 4.795702,10.48856 4.791602,11.04187 l -0.0035,0.47287 h -8.781915 -8.781916 l 0.0027,0.33777 c 0.0014,0.18577 0.922719,2.52649 2.047199,5.20159 1.12448,2.67511 3.321512,7.96453 4.882294,11.75426 1.560781,3.78973 3.606389,8.71436 4.545795,10.94362 0.939405,2.22925 2.39569,5.69473 3.236189,7.70106 0.840503,2.00633 1.685679,4.01266 1.878176,4.45851 0.803894,1.86195 1.025863,2.57599 0.901484,2.89994 l -0.131545,0.34262 -6.64,0.0802 -6.640004,0.0802 -0.487272,-0.74367 z m -10.680003,-44.96749 0.08071,-0.42514 -1.294132,-1.65841 c -0.711773,-0.91212 -1.701057,-2.20714 -2.198408,-2.87783 l -0.904278,-1.21943 2.205239,-2.85663 2.205236,-2.85663 -0.08743,-0.46061 -0.08743,-0.4606 -1.309705,-0.0835 -1.309705,-0.0835 -0.5501,0.48885 c -1.065492,0.94685 -4.796906,5.84285 -4.796906,6.29403 0,0.42802 2.5294,3.90016 4.295492,5.89648 l 0.790145,0.89315 1.440291,-0.0825 1.440288,-0.0825 z m 10.597762,-8.89979 v -3.72257 l -0.42742,-0.16401 c -0.23508,-0.0902 -0.960377,-0.16402 -1.611768,-0.16402 h -1.184351 l -0.279721,0.52266 -0.279719,0.52266 0.0041,3.05766 c 0.0022,1.68171 0.09505,3.2006 0.206167,3.37529 0.21242,0.33398 1.931073,0.56235 2.964696,0.39395 l 0.607979,-0.099 v -3.72257 z m -84.114995,54.11722 c -0.06397,-0.11395 0.58066,-1.84872 1.432511,-3.85505 0.85185,-2.00633 2.553359,-6.07979 3.781132,-9.05213 1.227771,-2.97234 2.590378,-6.23629 3.028015,-7.25322 0.437634,-1.01693 1.322927,-3.14486 1.967314,-4.72873 0.644387,-1.58386 1.738565,-4.21731 2.431504,-5.85209 1.062812,-2.5074 3.715482,-8.87148 4.819996,-11.56376 l 0.30984,-0.75524 -0.401596,-0.25392 -0.401596,-0.25391 -8.444149,-0.004 -8.444149,-0.004 v -0.40899 c 0,-0.22495 0.685731,-1.95769 1.523848,-3.85053 0.838116,-1.89285 1.754877,-3.97959 2.037247,-4.6372 l 0.5134,-1.19565 0.450639,0.45064 0.450642,0.45063 -0.326187,0.32619 -0.326185,0.32619 v 1.39904 1.39904 l 0.377828,0.31357 0.377828,0.31357 0.715645,-0.12977 0.715645,-0.12978 0.257591,0.67752 c 0.141675,0.37264 0.257591,1.2634 0.257591,1.97948 v 1.30196 l 0.607979,0.16293 c 0.334388,0.0896 2.569021,0.16459 4.965851,0.16662 l 4.35787,0.004 0.313063,-0.37721 0.313061,-0.37722 -0.07732,-2.79778 -0.07732,-2.7978 -1.215958,-0.16603 -1.215957,-0.16604 -0.645455,0.24115 c -0.355,0.13263 -0.719787,0.16641 -0.810638,0.0751 -0.09085,-0.0913 -0.135071,-1.31382 -0.09827,-2.71662 l 0.06692,-2.55054 -0.69249,-0.26328 c -0.380868,-0.14481 -0.959728,-0.26329 -1.286353,-0.26329 h -0.593866 l -0.266735,-0.60797 -0.266735,-0.60798 -1.282722,-0.0823 -1.282722,-0.0823 -0.639753,0.6903 c -0.351865,0.37967 -0.838602,0.6903 -1.08164,0.6903 h -0.441887 l 0.0041,-0.47287 c 0.006,-0.68979 0.324658,-1.08489 1.082213,-1.34198 l 0.670034,-0.22738 19.138076,0.0419 19.1380763,0.0419 0.2839477,0.28394 0.2839504,0.28395 -0.1665673,0.66366 -0.1665699,0.66366 -1.7488063,0.11136 c -0.9618467,0.0612 -1.8446724,0.20738 -1.961842,0.32474 -0.117167,0.11736 -0.204089,0.81394 -0.1931589,1.54794 l 0.019861,1.33455 0.2878253,0.28782 c 0.1583014,0.15831 0.9465877,0.31611 1.7517461,0.35068 0.8051584,0.0346 1.6090631,0.15256 1.786455,0.26219 l 0.3225287,0.19933 v 4.01515 c 0,2.20833 -0.073806,4.20748 -0.1640164,4.44256 l -0.164003,0.42742 h -6.7080078 -6.7080109 l -0.508716,0.74309 c -0.279795,0.40869 -1.156232,2.32383 -1.94764,4.25585 -1.963928,4.79444 -2.031186,4.95514 -2.697939,6.44629 -0.322718,0.72174 -0.87058,2.05929 -1.217468,2.97234 -0.618647,1.62836 -6.856868,16.54996 -7.585002,18.14307 -0.203779,0.44585 -0.790424,1.8442 -1.303655,3.10745 -0.513232,1.26324 -1.467623,3.57356 -2.120871,5.13404 l -1.187723,2.83723 -6.927915,0.0721 -6.927918,0.0721 z m 36.305097,-44.9369 0.522662,-0.27972 v -6.21207 -6.21208 l -0.693123,-0.26352 -0.693122,-0.26353 h -5.62379 -5.623793 l -0.370853,0.44652 -0.370851,0.44653 v 6.0481 6.04809 l 0.405319,0.25656 0.405319,0.25656 5.759785,0.004 5.759786,0.004 0.522661,-0.27972 z m -5.512089,-3.6834 c -0.09908,-0.0991 -0.180143,-1.31076 -0.180143,-2.69262 v -2.51248 l 0.534881,-0.28626 0.534881,-0.28626 0.681077,0.17094 0.681076,0.17094 v 2.64132 2.64132 l -0.607978,0.16293 c -0.804013,0.21547 -1.422195,0.21177 -1.643794,-0.01 z m -19.415914,-5.4087 c 0.195058,-0.0781 0.428119,-0.0685 0.517908,0.0213 0.08979,0.0898 -0.06981,0.15365 -0.354654,0.14192 l -0.517909,-0.0213 z m 42.6936178,-8.64681 c 0.1950585,-0.0781 0.4281197,-0.0685 0.5179087,0.0213 0.089789,0.0898 -0.069807,0.15365 -0.3546543,0.14192 l -0.5179087,-0.0213 z"
         id="path6784" />
      <path
         style="fill:#0f0707;stroke-width:0.270213"
         d="m -7.1960555,-149.25553 c -7.6782605,-0.67841 -16.6662425,-2.78984 -23.3734045,-5.49083 l -2.702128,-1.08815 -0.300001,0.40273 -0.300004,0.40273 h -8.141959 -8.141959 l 0.449456,-1.1484 c 0.247201,-0.63163 1.095218,-2.65651 1.884483,-4.49975 l 1.435027,-3.35135 -1.89454,-1.99445 c -2.611004,-2.74871 -4.80919,-5.78444 -6.153383,-8.49792 l -1.133721,-2.28861 -0.645807,-2.55284 c -0.355194,-1.40407 -0.729772,-3.46482 -0.832397,-4.57945 l -0.18659,-2.02659 0.313362,-2.27661 c 0.813026,-5.90674 3.328567,-10.95233 7.917548,-15.88077 l 2.219846,-2.38405 2.026596,-4.7802 2.026596,-4.7802 6.214894,-0.1069 6.214893,-0.10691 4.003532,-1.39909 c 6.807957,-2.37914 13.297657,-3.60702 21.8928392,-4.14224 l 5.08998717,-0.31695 5.17809823,0.31642 c 9.2385284,0.56456 18.1818824,2.39796 24.7846154,5.08089 l 1.594447,0.64788 6.017604,0.009 6.017603,0.009 2.026596,4.78576 2.026595,4.78576 1.598185,1.75771 c 3.490816,3.83927 5.319943,6.66315 6.912118,10.67121 l 0.816405,2.05518 0.43494,2.48694 0.43494,2.48694 -0.156872,2.83992 -0.156872,2.83992 -0.703335,2.42923 c -1.328666,4.58906 -3.669878,8.48012 -7.512923,12.48638 l -2.1305,2.22098 1.895142,4.53434 1.895143,4.53434 -8.14829,0.0718 -8.148294,0.0718 -0.342908,-0.46829 -0.342908,-0.46829 -0.873049,0.44746 c -1.41722,0.72638 -5.946721,2.3282 -9.368285,3.31303 -3.311225,0.95307 -7.15247,1.76119 -11.770723,2.47631 l -2.7021274,0.41842 -7.9712768,0.0769 c -4.3842022,0.0423 -8.5184577,0.0285 -9.1872343,-0.0306 z m 18.8203275,-3.34894 c 4.222802,-0.54 10.457948,-1.75118 11.172963,-2.17034 l 0.405647,-0.23781 -22.36010746,-0.008 c -12.29805854,-0.005 -22.36010654,0.0469 -22.36010654,0.11419 0,0.5755 10.32083,2.38377 16.2127659,2.84057 l 3.1074469,0.24093 4.86383,-0.12791 4.8638299,-0.12791 4.0937313,-0.5235 z m 38.124566,-3.71294 c 0.124379,-0.32395 -0.09759,-1.03799 -0.901483,-2.89994 -0.192497,-0.44585 -1.037674,-2.45218 -1.878176,-4.45851 -0.8405,-2.00633 -2.296785,-5.47181 -3.23619,-7.70106 -0.939406,-2.22926 -2.985014,-7.15389 -4.545795,-10.94362 -1.560782,-3.78973 -3.757814,-9.07915 -4.882294,-11.75426 -1.124479,-2.6751 -2.045718,-5.01582 -2.047199,-5.20159 l -0.0027,-0.33777 h 8.781916 8.781915 l 0.0035,-0.47287 c 0.0041,-0.5533 -4.621297,-11.21217 -4.791602,-11.04187 -0.06332,0.0633 -0.103937,2.08986 -0.09026,4.50341 l 0.02486,4.38828 -0.41672,0.63599 -0.416719,0.636 h -4.712986 -4.712987 l -0.279721,-0.52266 c -0.153846,-0.28747 -0.279719,-1.00215 -0.279719,-1.58819 v -1.06553 l 0.353808,-0.29364 0.353809,-0.29363 2.956298,-0.0772 2.956298,-0.0772 0.135106,-4.50431 c 0.07431,-2.47737 0.216262,-4.58512 0.315449,-4.68389 0.09919,-0.0988 0.67426,-0.24582 1.277934,-0.32679 l 1.097588,-0.14722 -0.141189,-0.22845 -0.141189,-0.22844 -19.27769,-0.0103 c -10.60273,-0.006 -19.4682492,0.0628 -19.7011537,0.15221 l -0.4234639,0.16249 0.2971908,0.47589 0.2971935,0.47588 0.8120002,-0.40508 0.8119975,-0.40508 0.4318135,0.27218 0.4318162,0.27218 0.072798,6.18543 0.072798,6.18544 -0.4622098,0.33798 -0.4622097,0.33797 H 5.04698 3.8826682 l -0.040532,0.27022 c -0.022292,0.14861 -0.052691,0.4222 -0.067553,0.60798 l -0.027021,0.33776 6.9752968,0.13511 6.975294,0.1351 0.379152,0.67554 c 0.208534,0.37154 1.129532,2.49946 2.046667,4.72872 0.917134,2.22926 2.48846,5.99872 3.491838,8.3766 1.003376,2.37787 2.334119,5.60016 2.957208,7.16063 0.623092,1.56048 1.29767,3.20203 1.499071,3.64788 0.376514,0.83352 0.815969,1.87162 1.887398,4.45851 0.338544,0.81739 1.556001,3.73569 2.70546,6.4851 1.149458,2.74942 2.226696,5.36918 2.39386,5.82168 0.167168,0.45251 0.523211,1.1574 0.79121,1.56642 l 0.487272,0.74367 6.640004,-0.0802 6.64,-0.0803 0.131545,-0.34262 z m -28.330252,-45.51104 c -1.766092,-1.99632 -4.295492,-5.46846 -4.295492,-5.89648 0,-0.45118 3.731414,-5.34718 4.796906,-6.29403 l 0.5501,-0.48885 1.309705,0.0835 1.309705,0.0835 0.08743,0.4606 0.08743,0.46061 -2.205236,2.85663 -2.205239,2.85663 0.904278,1.21943 c 0.497351,0.67069 1.486635,1.96571 2.198408,2.87783 l 1.294132,1.65841 -0.08071,0.42514 -0.0807,0.42514 -1.440288,0.0825 -1.440291,0.0825 z m 2.189615,-0.47843 c 0,-0.14345 -0.343911,-0.66023 -0.764246,-1.14841 -1.466898,-1.70365 -3.018701,-3.91194 -3.014515,-4.2898 0.0024,-0.20942 0.853489,-1.46414 1.891489,-2.78827 1.037998,-1.32412 1.887272,-2.51814 1.887272,-2.65336 v -0.24588 l -0.596046,0.0864 -0.596047,0.0864 -2.105887,2.70213 c -1.158237,1.48617 -2.068954,2.81319 -2.023815,2.94893 0.04514,0.13574 0.987422,1.43547 2.093957,2.88828 l 2.01188,2.64148 0.607979,0.0165 c 0.334388,0.009 0.607979,-0.10086 0.607979,-0.24431 z m 9.866273,-4.28539 c -0.592541,-0.0482 -1.168259,-0.23062 -1.279373,-0.40532 -0.111117,-0.17469 -0.203892,-1.69358 -0.206167,-3.37529 l -0.0041,-3.05766 0.279719,-0.52266 0.279721,-0.52266 h 1.184351 c 0.651391,0 1.376688,0.0738 1.611768,0.16402 l 0.42742,0.16401 v 3.72257 3.72257 l -0.607979,0.099 c -0.334389,0.0545 -1.092784,0.0596 -1.685323,0.0114 z m 1.21245,-3.84835 v -2.99028 l -0.743085,0.0855 -0.743085,0.0855 -0.07669,2.90479 -0.0767,2.90478 h 0.81978 0.819779 z m -67.874279,51.35838 c 0.653248,-1.56048 1.607639,-3.8708 2.120871,-5.13404 0.513231,-1.26325 1.099876,-2.6616 1.303655,-3.10745 0.728134,-1.59311 6.966355,-16.51471 7.585002,-18.14307 0.346888,-0.91305 0.89475,-2.2506 1.217468,-2.97234 0.666753,-1.49115 0.734011,-1.65185 2.697939,-6.44629 0.791408,-1.93202 1.667845,-3.84716 1.94764,-4.25585 l 0.508716,-0.74309 h 6.7080105 6.7080078 l 0.1640165,-0.42742 c 0.09021,-0.23508 0.1640164,-2.23423 0.1640164,-4.44256 v -4.01515 l -0.3225286,-0.19933 c -0.177392,-0.10963 -0.9812966,-0.22762 -1.786455,-0.26219 -0.8051585,-0.0346 -1.5934448,-0.19237 -1.7517462,-0.35068 l -0.2878253,-0.28782 -0.019861,-1.33455 c -0.010944,-0.734 0.075992,-1.43058 0.1931589,-1.54794 0.1171697,-0.11736 0.9999953,-0.2635 1.961842,-0.32474 l 1.7488063,-0.11136 0.1665699,-0.66366 0.1665673,-0.66366 -0.2839504,-0.28395 -0.2839477,-0.28394 -19.1380764,-0.0419 -19.138076,-0.0419 -0.670033,0.22738 c -0.757555,0.25709 -1.076176,0.65219 -1.082213,1.34198 l -0.0041,0.47287 h 0.441887 c 0.243038,0 0.729775,-0.31063 1.08164,-0.6903 l 0.639753,-0.6903 1.282722,0.0823 1.282722,0.0823 0.266735,0.60798 0.266735,0.60797 h 0.593866 c 0.326625,0 0.905485,0.11848 1.286353,0.26329 l 0.69249,0.26328 -0.06692,2.55054 c -0.03681,1.4028 0.0074,2.62527 0.09827,2.71662 0.09085,0.0913 0.455638,0.0576 0.810638,-0.0751 l 0.645455,-0.24115 1.215957,0.16604 1.215958,0.16603 0.07732,2.79778 0.07732,2.79778 -0.313061,0.37722 -0.313063,0.37722 -4.35787,-0.004 c -2.39683,-0.002 -4.631463,-0.077 -4.965851,-0.16663 l -0.607979,-0.16293 v -1.30196 c 0,-0.71607 -0.115916,-1.60684 -0.257591,-1.97947 l -0.257591,-0.67752 -0.715645,0.12977 -0.715645,0.12977 -0.377828,-0.31357 -0.377828,-0.31356 v -1.39904 -1.39905 l 0.326185,-0.32618 0.326187,-0.32619 -0.450642,-0.45064 -0.450639,-0.45064 -0.5134,1.19566 c -0.28237,0.65761 -1.199131,2.74434 -2.037247,4.63719 -0.838117,1.89286 -1.523848,3.6256 -1.523848,3.85055 v 0.40899 l 8.444149,0.004 8.444149,0.004 0.401596,0.25391 0.401596,0.25392 -0.30984,0.75525 c -1.104514,2.69227 -3.757184,9.05636 -4.819996,11.56375 -0.692939,1.63479 -1.787117,4.26823 -2.431504,5.8521 -0.644387,1.58386 -1.52968,3.71179 -1.967314,4.72872 -0.437637,1.01693 -1.800244,4.28088 -3.028015,7.25322 -1.227773,2.97234 -2.929282,7.0458 -3.781132,9.05213 -0.851851,2.00633 -1.496481,3.7411 -1.432511,3.85506 l 0.116308,0.20718 6.927918,-0.0721 6.927915,-0.0721 z m 8.697682,-42.14782 -0.405319,-0.25656 v -6.04809 -6.0481 l 0.370851,-0.44653 0.370853,-0.44652 h 5.623793 5.62379 l 0.693122,0.26353 0.693123,0.26352 v 6.21208 6.21207 l -0.522662,0.27972 -0.522661,0.27972 -5.759786,-0.004 -5.759785,-0.004 z m 5.674468,-5.40012 v -4.58411 l 0.472873,-0.23877 c 0.483289,-0.24404 3.059573,-0.20442 3.742241,0.0575 l 0.378503,0.14524 v 3.46721 3.4672 l -0.291665,0.29167 -0.291665,0.29166 -0.87808,-0.11833 -0.878078,-0.11834 -0.338753,0.40817 -0.338749,0.40817 0.175641,0.55339 0.175641,0.5534 h 2.143493 2.143492 v -5.67995 -5.67995 l -5.606915,0.073 -5.606915,0.073 -0.07304,5.60691 -0.07304,5.60692 h 2.572504 2.572504 z m -3.124146,2.61143 c -0.07417,-0.19327 -0.100746,-1.9868 -0.05907,-3.98564 l 0.07577,-3.63424 0.472873,0.0338 c 0.26008,0.0186 0.594468,0.049 0.743085,0.0676 l 0.270213,0.0338 v 3.75407 3.75407 l -0.42742,0.16401 c -0.647225,0.24837 -0.926941,0.19963 -1.07545,-0.18738 z m 6.028934,-0.89976 0.607978,-0.16293 v -2.64132 -2.64132 l -0.681076,-0.17094 -0.681077,-0.17094 -0.534881,0.28626 -0.534881,0.28626 v 2.51248 c 0,1.38186 0.08106,2.59354 0.180143,2.69262 0.221599,0.2216 0.839781,0.2253 1.643794,0.01 z m -14.582265,45.3634 c 0.513328,-1.20089 7.054656,-16.90149 12.524357,-30.06117 1.328082,-3.19527 2.611276,-6.26556 2.851541,-6.82288 l 0.436848,-1.01329 h 4.147258 4.1472609 v 0.35259 c 0,0.19392 -0.6787907,1.98746 -1.508425,3.98564 -0.8296343,1.99817 -2.032708,4.9098 -2.6734959,6.47028 -0.640788,1.56047 -3.062686,7.37481 -5.381998,12.92075 -2.319315,5.54594 -4.216933,10.19697 -4.216933,10.33564 v 0.25212 H 0.80413141 21.774531 l -0.142064,-0.33777 c -0.627772,-1.49257 -2.672207,-6.3963 -4.590718,-11.01117 -1.266563,-3.04665 -3.896222,-9.36165 -5.843689,-14.03333 l -3.540849,-8.49398 0.2278786,-0.22788 0.2278785,-0.22788 4.0089519,0.0751 4.008953,0.075 6.694878,16.07766 c 3.682181,8.84271 7.340511,17.62632 8.129621,19.51913 l 1.434744,3.44147 0.481351,0.004 c 0.264747,0.002 0.540502,-0.15039 0.612789,-0.33877 0.07229,-0.18838 -1.766865,-4.90022 -4.087014,-10.47075 -2.320147,-5.57051 -5.913455,-14.20167 -7.985131,-19.18034 -4.250474,-10.21479 -4.271999,-10.26216 -4.672443,-10.28406 -0.160658,-0.009 -3.392797,-0.0392 -7.1825315,-0.0676 l -6.8904257,-0.0516 -0.082307,-1.13239 -0.082307,-1.13238 -0.8634379,-0.0836 -0.86343785,-0.0836 -0.0798992,-1.82393 -0.0798992,-1.82394 H 1.5735136 2.5316044 v -2.3097 -2.3097 l -1.68882986,0.0804 -1.68882983,0.0805 -0.0733871,5.2016 -0.0733898,5.20159 h -7.24854681 -7.24855 l -8.294459,19.90572 -8.294462,19.90573 0.138235,0.36023 c 0.07603,0.19813 0.309472,0.36024 0.51876,0.36024 h 0.380525 z m -13.788663,-9.525 c 0.691223,-1.81926 1.970594,-4.91358 7.737021,-18.71301 2.46878,-5.90795 4.488693,-10.80218 4.488693,-10.87606 0,-0.0739 -3.993253,-0.13434 -8.873895,-0.13434 h -8.873896 l -1.264295,2.22926 c -1.461057,2.57619 -2.498386,5.62373 -2.910956,8.552 l -0.289371,2.05385 0.173974,1.96033 c 0.484836,5.4631 3.049819,10.80906 7.337876,15.29367 l 1.512342,1.58167 0.198919,-0.2306 c 0.109405,-0.12683 0.45302,-0.89938 0.763588,-1.71677 z m 95.59966,-3.54119 c 1.645339,-2.46334 2.984346,-5.38406 3.630271,-7.91853 l 0.544722,-2.13737 -0.0047,-2.72646 -0.0047,-2.72645 -0.379789,-1.75639 c -0.452785,-2.09395 -1.615173,-4.94686 -2.89767,-7.11189 l -0.931518,-1.57253 -8.848295,-0.0487 -8.848296,-0.0487 0.117923,0.40532 c 0.06486,0.22292 2.508007,6.12032 5.429218,13.10532 6.225435,14.88584 7.0384,16.84112 7.302679,17.56383 l 0.197617,0.54042 1.750203,-1.89149 c 0.962614,-1.04032 2.286657,-2.69465 2.94232,-3.67629 z m -83.103733,-31.72158 v -2.29681 h -0.796517 -0.796517 l -0.08167,1.41862 -0.08167,1.41861 h -2.431915 -2.431915 l -0.08309,-1.1484 -0.08309,-1.1484 h 1.335087 1.335086 l 0.131288,-0.50205 c 0.07221,-0.27613 0.01505,-0.70977 -0.127041,-0.96365 l -0.258326,-0.4616 -0.719636,0.0465 c -0.395802,0.0256 -0.932431,0.0337 -1.192511,0.0179 l -0.472872,-0.0286 v -1.08085 -1.08086 l 0.337766,-0.0439 c 0.185771,-0.0241 0.763351,-0.0545 1.28351,-0.0676 l 0.945745,-0.0237 0.08352,-0.86274 0.08352,-0.86273 -1.299477,-0.083 -1.299478,-0.083 -0.08635,-0.60798 -0.08635,-0.60798 h -0.762551 -0.762551 l -0.165849,0.66079 -0.165846,0.66078 -1.282065,0.0823 -1.282062,0.0823 v 0.81064 0.81064 l 0.925263,-0.0519 c 0.508894,-0.0285 1.147272,0.0669 1.418617,0.21217 l 0.493354,0.26403 v 0.78519 0.78518 l -0.324687,0.20067 c -0.178579,0.11036 -0.783055,0.17362 -1.343285,0.14056 l -1.018594,-0.0601 -0.177146,0.70581 -0.177146,0.7058 0.23692,0.23337 c 0.130304,0.12835 0.784098,0.27144 1.452874,0.31798 l 1.215958,0.0846 0.07939,1.95905 0.07939,1.95904 h 4.17646 4.17646 z m 37.8297884,-2.0266 v -4.3234 H 5.4786476 4.9129247 l -0.1537781,-0.58805 -0.1537808,-0.58806 -0.2175348,0.58806 -0.2175348,0.58805 H 3.2091548 2.2480161 l -0.2599177,-0.68363 -0.259915,-0.68363 -3.4488229,0.0756 -3.4488202,0.0756 v 0.75863 0.75863 l 4.31841628,0.0261 c 2.37512702,0.0144 4.53345162,0.0824 4.79627672,0.15108 l 0.4778605,0.12496 v 3.07593 3.07593 l -0.4728724,0.0462 c -0.2600798,0.0254 -0.6552659,0.0733 -0.8781915,0.10638 -0.2229255,0.0331 -0.6181117,0.0731 -0.8781915,0.0889 l -0.4728723,0.0287 v 0.81064 0.81064 h 2.1617021 2.1617022 z m 37.7677176,-1.28351 -0.07304,-5.60691 H 42.92841 42.117772 l -0.135107,4.72872 -0.135106,4.72872 -2.972341,0.0473 c -1.634787,0.026 -3.124335,0.0565 -3.310106,0.0676 l -0.337766,0.0202 v 0.81064 0.81064 h 4.328887 4.328887 z m -40.1148425,-5.86892 -0.6036647,-0.0568 0.092855,1.64253 c 0,0 0.4548175,0.19192 0.5288369,0.009 0.074017,-0.18294 0.050469,-1.33184 -0.018027,-1.59475 z m 2.4740952,0.97978 c 0.013846,-0.31968 0.1586992,-0.82974 0.019229,-0.91595 l -0.8496751,0.0719 0.05805,0.73813 c 0.073469,0.9342 0.7134485,1.46693 0.7544774,0.51962 z m -4.1801619,-1.085 c 0,-0.25874 0.1113007,-0.58595 0.2473312,-0.72713 0.1360332,-0.14119 0.2880279,-0.5607 0.337766,-0.93224 l 0.090435,-0.67553 9.997872,-0.13511 9.997873,-0.1351 -0.540426,-0.18864 c -1.173331,-0.40955 -7.219066,-1.55417 -10.673404,-2.02076 l -3.6478723,-0.49273 -7.02553215,0.01 -7.02553215,0.01 -3.7829794,0.48278 c -3.986119,0.5087 -9.986891,1.67868 -10.673077,2.08094 l -0.405646,0.2378 10.065426,0.008 10.06542552,0.008 v 1.47137 1.47136 l 1.28351067,0.0826 c 1.54246101,0.0992 1.68882981,0.0511 1.68882981,-0.55527 z"
         id="path6782"
         sodipodi:nodetypes="cscccccsscsscsscsscccccsscsscccccsscccccsscccccccssscscccsccsscccccssssssscccssscccccsscccccsssccccccccccccccccccsscccsssssssssccccscsscccccccssccccccsscsscccsssccssssccccssccccssccccccccccsssssscccsscscsccsscccccccsccsscccccsscsscccccccccccsscccccccccccssscccccssssssscccccccccccccccccccccccsscccccccccccccccccccccccscsscccsccccccccccsscccsscccssssscccssscccccssccssscccccccccccccccccccccssccsssscsscsscsscscccsscccssscsccccccccccccccssccccccccccccccccccccccccccccsscccsscccccccccccccccccccccccccccsscccccccccccccssccccccsccscsscsssssscccsscccssccccccsss" />
    </g>
  </g>
</svg>
